<?xml version="1.0" encoding="utf-8"?>
<!-- Generator: Adobe Illustrator 20.1.0, SVG Export Plug-In . SVG Version: 6.00 Build 0)  -->
<svg version="1.1" id="Layer_1" xmlns="http://www.w3.org/2000/svg" xmlns:xlink="http://www.w3.org/1999/xlink" x="0px" y="0px"
	 viewBox="0 0 295.8 95.6" style="enable-background:new 0 0 295.8 95.6;" xml:space="preserve">
<style type="text/css">
	.st0{fill:#292929;}
	.st1{fill:#E64D3C;}
	.st2{fill:none;}
	.st3{fill:#FFFFFF;}
</style>
<g>
	<g>
		<g>
			<path class="st0" d="M127.3,38.2c-0.3-0.6-0.8-0.9-1.4-1.2c-0.6-0.2-1.4-0.3-2.5-0.3h-3.9c-0.8,0-1.4,0.1-1.8,0.3
				c-0.4,0.2-0.7,0.5-0.8,1c-0.2,0.5-0.2,1.2-0.2,2.2v9.1h5.2c0.7,0,1.4-0.2,1.9-0.5c0.6-0.3,1.1-0.8,1.6-1.6l0.4-0.5l0.9,0.5v7.7
				l-1.5,0.5l-0.3-1c-0.3-1-0.7-1.7-1.4-2c-0.7-0.3-1.8-0.5-3.5-0.5h-3.4v8.7c0,1.4,0.2,2.3,0.6,2.9c0.4,0.5,1.2,1,2.3,1.3l1,0.3
				l-0.5,1.5h-9.8l-0.6-0.7l0.6-0.8c0.7-1,1.3-2,1.6-3.1c0.3-1.1,0.4-2.6,0.4-4.4V43.2c0-1.8-0.1-3.2-0.4-4.4
				c-0.3-1.1-0.8-2.2-1.6-3.1l-0.6-0.8l0.6-0.7h13.3c2.6,0,4.3-0.3,5.1-0.9l0.8-0.6l0.7,0.6v8l-1.5,0.5l-0.3-1
				C128,39.6,127.7,38.7,127.3,38.2z"/>
			<path class="st0" d="M142.9,65.9c-1.3,0.7-2.7,1.1-4.2,1.1c-1.4,0-2.8-0.4-4-1.2c-1.2-0.8-2.2-2.1-2.9-3.7
				c-0.7-1.6-1.1-3.6-1.1-6c0-2.6,0.5-4.8,1.4-6.7c0.9-1.9,2.3-3.4,4-4.4c1.8-1,3.8-1.5,6.2-1.5c1.2,0,2.8,0.2,4.9,0.6
				c1.8,0.3,3.1,0.5,4,0.5l0.5,0.6l-0.5,0.8c-0.2,0.3-0.4,0.6-0.4,0.8c-0.1,0.3-0.1,0.6-0.1,0.9v14.7c0,0.9,0.4,1.4,1.3,1.4
				c0.7,0,1.5-0.3,2.2-0.8l0.9,1.2c-0.8,0.9-1.6,1.6-2.5,2.1c-0.9,0.5-1.7,0.8-2.5,0.8c-1.2,0-2.1-0.4-2.6-1.1
				c-0.5-0.7-0.8-2-0.8-3.6C145.5,64,144.2,65.2,142.9,65.9z M136.9,61.5c1,1.3,2.2,2,3.7,2c1.2,0,2.3-0.3,3.4-1
				c1-0.7,2-1.7,2.8-3.1V47.3c-1.4-0.9-2.8-1.4-4.4-1.4c-2.2,0-3.9,0.8-5.1,2.4c-1.2,1.6-1.8,3.9-1.8,6.8
				C135.5,58.1,135.9,60.2,136.9,61.5z"/>
			<path class="st0" d="M164,46.3c-0.5,0.2-0.8,0.3-0.9,0.3c-0.2,0-0.3-0.1-0.5-0.3c-0.1-0.2-0.2-0.4-0.2-0.7c0-0.4,0.1-0.6,0.4-0.8
				c1.4-0.9,2.9-1.3,4.5-1.3c1.9,0,3.5,0.5,5,1.4c1.5,0.9,2.6,2.2,3.4,3.9c0.8,1.6,1.2,3.5,1.2,5.6c0,2.4-0.5,4.6-1.5,6.5
				c-1,1.9-2.4,3.4-4.2,4.5c-1.8,1.1-3.8,1.6-6,1.6c-1.7,0-3.4-0.3-4.8-0.8c-1.5-0.5-2.7-1.2-3.5-2.1v-28c0-0.4-0.1-0.6-0.2-0.8
				c-0.1-0.1-0.4-0.2-0.7-0.2h-2l-0.4-1.2c0.9-0.8,1.9-1.4,3-1.9c1.1-0.5,2.1-0.8,3-0.8c0.4,0,0.8,0.1,1,0.4c0.3,0.3,0.4,0.6,0.4,1
				V63c0.7,0.5,1.4,0.9,2.2,1.1c0.7,0.2,1.6,0.3,2.5,0.3c2,0,3.6-0.8,4.8-2.5c1.2-1.7,1.8-3.9,1.8-6.8c0-1.8-0.3-3.4-0.8-4.8
				c-0.5-1.4-1.2-2.5-2.2-3.3c-0.9-0.8-2-1.2-3.2-1.2C165.2,46,164.5,46.1,164,46.3z"/>
			<path class="st1" d="M197.5,38.2c-0.3-0.6-0.8-0.9-1.4-1.2c-0.6-0.2-1.4-0.3-2.5-0.3h-2c-0.6,0-1,0.2-1.2,0.7
				c-0.2,0.4-0.3,1.4-0.3,2.8v20.3c0,1.4,0.2,2.3,0.6,2.9c0.4,0.5,1.2,1,2.3,1.3l1,0.3l-0.5,1.5h-9.8l-0.6-0.7l0.6-0.8
				c0.7-1,1.3-2,1.6-3.1c0.3-1.1,0.4-2.6,0.4-4.4V40.1c0-1.4-0.1-2.3-0.3-2.8c-0.2-0.4-0.6-0.7-1.2-0.7h-2c-1.1,0-1.9,0.1-2.5,0.3
				c-0.6,0.2-1.1,0.6-1.4,1.2c-0.3,0.6-0.7,1.4-1,2.5l-0.3,1l-1.5-0.5v-8l0.7-0.6l0.8,0.6c0.8,0.6,2.5,0.9,5.1,0.9h11.6
				c2.6,0,4.3-0.3,5.1-0.9l0.8-0.6l0.7,0.6v8l-1.5,0.5l-0.3-1C198.1,39.6,197.8,38.7,197.5,38.2z"/>
			<path class="st1" d="M203.4,50.2c0.5-2,1.3-3.6,2.4-4.8c1.1-1.2,2.2-1.8,3.5-1.8c1.3,0,2.3,0.4,3.1,1.2c0.8,0.8,1.2,1.9,1.2,3.3
				c0,1.1-0.4,2.1-1.3,2.9c-0.8,0.8-1.9,1.2-3.1,1.2c-0.6,0-0.9-0.2-0.9-0.5c0-0.1,0.1-0.3,0.4-0.7s0.5-0.7,0.6-1.1
				c0.2-0.4,0.2-0.8,0.2-1.3c0-0.5-0.1-1-0.4-1.3c-0.3-0.3-0.6-0.5-1.1-0.5c-0.7,0-1.5,0.4-2.2,1.3s-1.4,2.2-2,4.1
				c-0.5,1.9-0.8,4.3-0.8,7.2c0,1.3,0.1,2.4,0.3,3.3c0.2,0.8,0.6,1.6,1.1,2.4l0.5,0.7l-0.5,0.7h-7.9l-0.5-1.4l0.9-0.2
				c0.7-0.2,1.2-0.5,1.5-1c0.3-0.5,0.4-1.3,0.4-2.4V48.8c0-0.4-0.1-0.6-0.2-0.8c-0.1-0.1-0.4-0.2-0.7-0.2h-2l-0.4-1.2
				c0.9-0.8,1.9-1.4,3-1.9c1.1-0.5,2.1-0.8,2.9-0.8c0.4,0,0.8,0.1,1,0.4c0.3,0.3,0.4,0.6,0.4,1v4.8H203.4z"/>
			<path class="st1" d="M224.4,65.9c-1.3,0.7-2.7,1.1-4.2,1.1c-1.4,0-2.8-0.4-4-1.2c-1.2-0.8-2.2-2.1-2.9-3.7
				c-0.7-1.6-1.1-3.6-1.1-6c0-2.6,0.5-4.8,1.4-6.7c0.9-1.9,2.3-3.4,4-4.4c1.8-1,3.8-1.5,6.2-1.5c1.2,0,2.8,0.2,4.9,0.6
				c1.8,0.3,3.1,0.5,4,0.5l0.5,0.6l-0.5,0.8c-0.2,0.3-0.4,0.6-0.4,0.8c-0.1,0.3-0.1,0.6-0.1,0.9v14.7c0,0.9,0.4,1.4,1.3,1.4
				c0.7,0,1.5-0.3,2.2-0.8l0.9,1.2c-0.8,0.9-1.6,1.6-2.5,2.1c-0.9,0.5-1.7,0.8-2.5,0.8c-1.2,0-2.1-0.4-2.6-1.1
				c-0.5-0.7-0.8-2-0.8-3.6C227,64,225.7,65.2,224.4,65.9z M218.4,61.5c1,1.3,2.2,2,3.7,2c1.2,0,2.3-0.3,3.4-1c1-0.7,2-1.7,2.8-3.1
				V47.3c-1.4-0.9-2.8-1.4-4.4-1.4c-2.2,0-3.9,0.8-5.1,2.4c-1.2,1.6-1.8,3.9-1.8,6.8C216.9,58.1,217.4,60.2,218.4,61.5z"/>
			<path class="st1" d="M253.9,61.6c0.2,0,0.5,0.1,0.7,0.4c0.3,0.3,0.4,0.6,0.4,0.9c0,0.2,0,0.3-0.1,0.4c-1,1.2-2.3,2.1-3.7,2.8
				c-1.4,0.6-2.9,1-4.4,1c-2.1,0-3.9-0.5-5.6-1.5s-2.9-2.4-3.9-4.2c-0.9-1.8-1.4-3.8-1.4-6c0-2.4,0.4-4.4,1.3-6.2
				c0.9-1.8,2.2-3.2,3.8-4.1c1.6-1,3.5-1.5,5.7-1.5c2.3,0,4.2,0.6,5.7,1.7c1.5,1.1,2.2,2.6,2.2,4.3c0,1.3-0.4,2.3-1.2,3.2
				c-0.8,0.8-1.9,1.2-3.2,1.2c-0.6,0-0.9-0.2-0.9-0.5c0-0.1,0.1-0.3,0.3-0.6c0.2-0.3,0.4-0.7,0.5-1.2c0.1-0.5,0.2-1.1,0.2-1.8
				c0-1.2-0.4-2.1-1.1-2.8c-0.8-0.7-1.8-1.1-3.1-1.1c-1.7,0-3.1,0.8-4.1,2.5c-1,1.7-1.6,3.9-1.6,6.6c0,2.8,0.6,5,1.9,6.6
				c1.2,1.6,2.9,2.4,5,2.4c2.2,0,4.1-0.7,5.9-2.2C253.5,61.6,253.7,61.6,253.9,61.6z"/>
			<path class="st1" d="M264.8,55.8c-0.6-0.1-0.9-0.5-0.9-0.9c0-0.2,0.1-0.4,0.2-0.6c0.1-0.2,0.3-0.2,0.5-0.2c0.1,0,0.4,0.1,0.9,0.2
				c0.5,0.1,1.2,0.2,2,0.2c1.1,0,2-0.2,2.8-0.7c0.8-0.4,1.4-1,1.8-1.8c0.4-0.7,0.6-1.5,0.6-2.2c0-0.9-0.3-1.7-0.8-2.3
				c-0.5-0.6-1.3-0.9-2.2-0.9c-1.5,0-2.8,0.5-3.9,1.6c-1.1,1-2,2.5-2.5,4.4c-0.6,1.9-0.9,4.1-0.9,6.6c0,1.4,0.1,2.6,0.3,3.4
				c0.2,0.9,0.6,1.6,1.1,2.4l0.5,0.7l-0.5,0.7h-7.9l-0.5-1.4l0.9-0.2c0.7-0.2,1.2-0.5,1.5-1c0.3-0.5,0.4-1.3,0.4-2.4V36.1
				c0-0.4-0.1-0.6-0.2-0.8c-0.1-0.1-0.4-0.2-0.7-0.2h-2L255,34c0.9-0.8,1.9-1.4,3-1.9c1.1-0.5,2.1-0.8,2.9-0.8c0.4,0,0.8,0.1,1,0.4
				c0.3,0.3,0.4,0.6,0.4,1v17.5c0.7-2,1.9-3.6,3.4-4.8c1.5-1.2,3.1-1.9,4.7-1.9c2,0,3.5,0.6,4.6,1.7s1.6,2.5,1.6,4.2
				c0,1-0.3,2.1-0.8,3.1c-0.5,1-1.3,1.9-2.3,2.6c-1,0.7-2.2,1.1-3.6,1.3l3.5,6.6c0.2,0.5,0.5,0.8,0.8,1c0.3,0.2,0.7,0.3,1.1,0.3
				c0.4,0,0.8-0.1,1.2-0.3c0.4-0.2,0.8-0.5,1.2-0.9l0.9,1.2c-1.4,1.9-3,2.8-4.8,2.8c-0.9,0-1.7-0.2-2.3-0.5s-1.1-0.9-1.6-1.5
				c-0.4-0.6-1-1.5-1.6-2.7l-3.3-6.3L264.8,55.8z"/>
		</g>
		<g>
			<g>
				<g>
					<path class="st1" d="M39.4,35.3c2.8-4.5,6.9-6.8,12.4-6.8c3.9,0,7.1,0.9,9.5,2.8c2.5,1.8,3.7,4.2,3.7,7.1
						c0,2.6-0.8,4.7-2.5,6.3c-1.6,1.6-3.7,2.5-6.3,2.5c-1.1,0-1.7-0.3-1.7-1c0-0.2,0.2-0.6,0.6-1.2c0.4-0.7,0.8-1.5,1.1-2.4
						c0.3-1,0.4-2.2,0.4-3.7c0-1.9-0.5-3.4-1.6-4.6c-1.1-1.2-2.5-1.7-4.4-1.7c-2.6,0-4.5,1.3-5.8,3.9c-1.2,2.6-1.8,6.2-1.8,10.8v6.8
						v5.6v-0.1c0,6.2-1.4,11.1-4.1,14.7c-2.7,3.6-6.7,5.4-12,5.4c-3.2,0-5.9-0.8-7.9-2.5c-2.1-1.6-3.1-3.9-3.1-6.6
						c0-2.3,0.8-4.2,2.5-5.7c1.7-1.5,3.7-2.3,6.2-2.3c1.1,0,1.7,0.3,1.7,1c0,0.2-0.2,0.6-0.7,1.2c-0.5,0.6-0.9,1.3-1.2,2.1
						S24,68.5,24,69.8c0,1.8,0.5,3.3,1.4,4.3c0.9,1,2.1,1.6,3.5,1.6c1.8,0,3.3-0.8,4.5-2.4c1.2-1.6,1.8-3.9,1.8-7v-6.8v-5.6
						C35.2,46,36.6,39.8,39.4,35.3z"/>
				</g>
			</g>
			<g>
				<g>
					<path class="st1" d="M82.9,41.3v5.6v19.4c0,3.1,0.6,5.4,1.8,6.9c1.2,1.6,2.7,2.3,4.5,2.3c1.4,0,2.6-0.5,3.5-1.5
						c0.9-1,1.4-2.5,1.4-4.3c0-1.2-0.2-2.3-0.5-3.1s-0.8-1.5-1.2-2.1c-0.5-0.6-0.7-1-0.7-1.2c0-0.6,0.6-1,1.7-1
						c2.5,0,4.6,0.8,6.2,2.3c1.7,1.5,2.5,3.4,2.5,5.7c0,2.8-1,5-3.1,6.6c-2.1,1.6-4.7,2.4-7.9,2.4c-5.3,0-9.3-1.8-12-5.4
						c-2.7-3.6-4.1-8.4-4.1-14.6V46.9v-5.6v-6.7c0-4.5-0.6-8.1-1.8-10.7c-1.2-2.6-3.1-3.8-5.8-3.8c-1.8,0-3.3,0.6-4.4,1.7
						c-1.1,1.2-1.6,2.7-1.6,4.6c0,1.5,0.1,2.7,0.4,3.6c0.3,0.9,0.7,1.7,1.1,2.4c0.4,0.6,0.6,1.1,0.6,1.2c0,0.6-0.6,1-1.7,1
						c-2.6,0-4.7-0.8-6.3-2.4c-1.6-1.6-2.5-3.7-2.5-6.2c0-2.9,1.2-5.2,3.7-7.1c2.5-1.8,5.7-2.7,9.5-2.7c5.5,0,9.6,2.2,12.4,6.7
						C81.5,27.3,82.9,33.5,82.9,41.3z"/>
				</g>
			</g>
			<g>
				<path class="st1" d="M64.2,70.2c0-0.2-1-2.8-2.5-3.6c-0.8-0.4-1.6-0.3-2.3,0.2l-0.1,0.1C59,67,59,67,58.7,67s-0.2,0-0.5-0.2
					l-0.1-0.1c-0.8-0.5-1.6-0.6-2.3-0.2c-1.5,0.8-2.5,3.4-2.5,3.6c0,0,0,0.1,0,0.1c0,0,1,3.5,5.4,3.5S64.1,70.3,64.2,70.2
					C64.1,70.2,64.2,70.2,64.2,70.2z M60.7,69.9c-0.4,0.1-0.8,0.2-1.2,0.4c-0.2,0.1-0.5,0.2-0.8,0.2c0,0,0,0,0,0c0,0,0,0,0,0
					c-0.3,0-0.6-0.1-0.8-0.2c-0.4-0.2-0.8-0.3-1.2-0.4c0.5-0.4,1-0.6,1.2-0.6c0.2,0,0.4,0.1,0.4,0.2c0,0,0,0,0,0
					c0.1,0.1,0.3,0.2,0.5,0.1c0,0,0.1,0,0.1-0.1l0,0c0,0,0.2-0.2,0.4-0.2C59.8,69.3,60.2,69.6,60.7,69.9z"/>
			</g>
			<g>
				<path class="st1" d="M77.3,49.5c-5.7-0.3-11.3,0.7-15.9,2.9l-0.8,0.3c-0.6-0.1-1.2-0.2-1.9-0.2c-0.7,0-1.3,0.1-1.9,0.2l-0.8-0.3
					c-4.6-2.1-10.3-3.2-15.9-2.9l-11.1,0.6l3.9,8.9c1.3,3,5.7,5.1,10.6,5.1c3.2,0,6.4-0.8,8.8-2.1c2.4-1.4,4-3.3,4.5-5.3l0.1-0.6h0
					c0-0.6,0.8-1.1,1.7-1.1s1.7,0.5,1.7,1.1h0l0.1,0.6c0.5,2.1,2.1,4,4.5,5.3c2.4,1.4,5.6,2.1,8.8,2.1c4.9,0,9.2-2.1,10.6-5.1
					l3.9-8.9L77.3,49.5z"/>
			</g>
		</g>
		<g>
			<path class="st0" d="M54.8,53.4c0,0-0.1,0-0.1,0L54,53.1c-3.8-1.8-8.5-2.6-13.2-2.4l-9.2,0.5l3.3,7.4c1.1,2.5,4.7,4.3,8.8,4.3
				c2.7,0,5.3-0.6,7.3-1.8c2-1.1,3.4-2.7,3.7-4.4l0.1-0.5h0c0-0.1,0-0.1,0-0.2C55,55,54.9,54.1,54.8,53.4z"/>
		</g>
		<g>
			<path class="st0" d="M62.5,53.4c0,0,0.1,0,0.1,0l0.6-0.3c3.8-1.8,8.5-2.6,13.2-2.4l9.2,0.5l-3.3,7.4c-1.1,2.5-4.7,4.3-8.8,4.3
				c-2.7,0-5.3-0.6-7.3-1.8c-2-1.1-3.4-2.7-3.7-4.4l-0.1-0.5h0c0-0.1,0-0.1,0-0.2C62.3,55,62.4,54.1,62.5,53.4z"/>
		</g>
	</g>
	<rect class="st2" width="295.8" height="95.6"/>
	<circle class="st3" cx="50.6" cy="54.4" r="1.4"/>
	<circle class="st3" cx="81" cy="53.4" r="1.4"/>
</g>
</svg>
