<?xml version="1.0" encoding="utf-8"?>
<!-- Generator: Adobe Illustrator 16.0.0, SVG Export Plug-In . SVG Version: 6.00 Build 0)  -->
<!DOCTYPE svg PUBLIC "-//W3C//DTD SVG 1.1//EN" "http://www.w3.org/Graphics/SVG/1.1/DTD/svg11.dtd">
<svg version="1.1" id="Layer_1" xmlns="http://www.w3.org/2000/svg" xmlns:xlink="http://www.w3.org/1999/xlink" x="0px" y="0px"
	 width="896.813px" height="725.838px" viewBox="0 0 896.813 725.838" enable-background="new 0 0 896.813 725.838"
	 xml:space="preserve">
<g>
	<g>
		<g>
			<g>
				<path fill="#F2F2F2" d="M262.909,211.796c26.777-43.033,65.986-65.028,118.583-65.028c37.298,0,67.9,8.606,90.851,26.775
					c23.908,17.214,35.386,40.167,35.386,67.9c0,24.864-7.655,44.947-23.908,60.247c-15.306,15.303-35.386,23.909-60.25,23.909
					c-10.52,0-16.259-2.87-16.259-9.564c0-1.911,1.914-5.736,5.739-11.475c3.825-6.695,7.649-14.345,10.52-22.953
					c2.869-9.562,3.825-21.036,3.825-35.384c0-18.169-4.781-32.514-15.301-43.989c-10.52-11.478-23.908-16.258-42.078-16.258
					c-24.863,0-43.035,12.434-55.467,37.297c-11.477,24.864-17.213,59.292-17.213,103.284v65.027v53.556v-0.958
					c0,59.294-13.389,106.153-39.209,140.581c-25.822,34.428-64.074,51.645-114.761,51.645c-30.603,0-56.422-7.656-75.548-23.914
					c-20.083-15.3-29.647-37.292-29.647-63.117c0-21.997,7.65-40.161,23.908-54.508c16.258-14.348,35.383-21.998,59.292-21.998
					c10.52,0,16.259,2.87,16.259,9.567c0,1.911-1.914,5.738-6.694,11.478c-4.783,5.733-8.608,12.431-11.479,20.08
					c-2.866,7.65-3.824,15.301-3.824,27.731c0,17.211,4.783,31.563,13.389,41.125c8.608,9.562,20.084,15.3,33.473,15.3
					c17.213,0,31.559-7.65,43.033-22.95c11.475-15.306,17.214-37.297,17.214-66.944v-65.033v-53.551
					C222.742,314.124,236.131,254.832,262.909,211.796z"/>
			</g>
		</g>
		<g>
			<g>
				<path fill="#F2F2F2" d="M678.909,269.177v53.553v185.528c0,29.647,5.739,51.639,17.212,65.986
					c11.478,15.305,25.825,21.992,43.036,21.992c13.389,0,24.866-4.781,33.475-14.342c8.604-9.562,13.384-23.909,13.384-41.12
					c0-11.478-1.911-21.997-4.78-29.647c-2.865-7.65-7.646-14.347-11.479-20.086c-4.78-5.738-6.691-9.561-6.691-11.473
					c0-5.738,5.738-9.566,16.258-9.566c23.908,0,43.989,7.655,59.289,21.997c16.259,14.348,23.914,32.517,23.914,54.515
					c0,26.777-9.566,47.816-29.646,63.116c-20.086,15.3-44.947,22.95-75.553,22.95c-50.688,0-88.938-17.211-114.762-51.645
					c-25.82-34.422-39.203-80.328-39.203-139.622V322.729v-53.553v-64.075c0-43.033-5.739-77.461-17.217-102.325
					s-29.646-36.339-55.467-36.339c-17.211,0-31.559,5.736-42.078,16.256c-10.52,11.478-15.305,25.822-15.305,43.991
					c0,14.345,0.958,25.822,3.832,34.428c2.865,8.606,6.692,16.256,10.515,22.953c3.827,5.736,5.739,10.52,5.739,11.475
					c0,5.739-5.739,9.562-16.254,9.562c-24.866,0-44.949-7.65-60.252-22.95c-15.301-15.3-23.908-35.384-23.908-59.292
					c0-27.733,11.478-49.73,35.383-67.899c23.911-17.214,54.512-25.82,90.855-25.82c52.598,0,91.801,21.036,118.578,64.073
					C665.521,135.29,678.909,194.585,678.909,269.177z"/>
			</g>
		</g>
		<g>
			<path fill="#F2F2F2" d="M500.073,545.555c0-1.916-9.561-26.777-23.902-34.428c-7.656-3.827-15.303-2.869-21.998,1.911
				l-0.955,0.958c-2.869,0.959-2.869,0.959-5.739,0.959c-2.869,0-1.913,0-4.78-1.917l-0.959-0.958
				c-7.649-4.78-15.3-5.733-21.994-1.911c-14.344,7.649-23.908,32.517-23.908,34.428v0.958c0,0,9.564,33.47,51.642,33.47
				C489.554,579.024,499.12,546.514,500.073,545.555C499.12,545.555,500.073,545.555,500.073,545.555z M466.608,542.686
				c-3.83,0.953-7.654,1.911-11.48,3.828c-1.91,0.952-4.779,1.91-7.649,1.91l0,0l0,0c-2.869,0-5.739-0.958-7.649-1.91
				c-3.826-1.917-7.65-2.875-11.479-3.828c4.783-3.828,9.564-5.738,11.479-5.738c1.91,0,3.824,0.958,3.824,1.91l0,0
				c0.956,0.959,2.869,1.917,4.781,0.959c0,0,0.958,0,0.958-0.959l0,0c0,0,1.911-1.91,3.825-1.91
				C457.998,536.947,461.823,539.816,466.608,542.686z"/>
		</g>
		<g>
			<path fill="#F2F2F2" d="M625.354,347.596c-54.51-2.869-108.064,6.692-152.059,27.731l-7.645,2.874
				c-5.739-0.958-11.479-1.916-18.173-1.916s-12.431,0.958-18.169,1.916l-7.65-2.874c-43.992-20.081-98.503-30.601-152.057-27.731
				L163.45,353.33l37.297,85.113c12.432,28.694,54.512,48.775,101.37,48.775c30.603,0,61.206-7.65,84.155-20.081
				c22.953-13.394,38.254-31.558,43.037-50.691l0.955-5.733l0,0c0-5.738,7.65-10.52,16.258-10.52c8.605,0,16.256,4.781,16.256,10.52
				l0,0l0.959,5.733c4.777,20.087,20.083,38.256,43.033,50.691c22.955,13.384,53.556,20.081,84.156,20.081
				c46.857,0,87.982-20.081,101.371-48.775l37.298-85.113L625.354,347.596z"/>
		</g>
	</g>
	<g>
		<path fill="#E73C4C" d="M410.181,384.889h-0.955l-6.694-2.864c-36.339-17.217-81.286-24.867-126.233-22.956l-87.983,4.786
			l31.558,70.767c10.52,23.903,44.947,41.12,84.159,41.12c25.819,0,50.683-5.739,69.812-17.217
			c19.125-10.515,32.514-25.814,35.383-42.078l0.955-4.78l0,0c0-0.953,0-0.953,0-1.906
			C412.095,400.193,411.137,391.585,410.181,384.889z"/>
	</g>
	<g>
		<path fill="#E73C4C" d="M483.82,384.889h0.953l5.739-2.864c36.338-17.217,81.291-24.867,126.232-22.956l87.989,4.786
			l-31.563,70.767c-10.52,23.908-44.947,41.12-84.156,41.12c-25.824,0-50.686-5.739-69.809-17.212
			c-19.133-10.52-32.517-25.819-35.386-42.083l-0.958-4.78l0,0c0-0.953,0-0.953,0-1.906
			C481.909,400.193,482.862,391.585,483.82,384.889z"/>
	</g>
</g>
</svg>
