<?xml version="1.0" encoding="utf-8"?>
<!-- Generator: Adobe Illustrator 16.0.0, SVG Export Plug-In . SVG Version: 6.00 Build 0)  -->
<!DOCTYPE svg PUBLIC "-//W3C//DTD SVG 1.1//EN" "http://www.w3.org/Graphics/SVG/1.1/DTD/svg11.dtd">
<svg version="1.1" id="Capa_1" xmlns="http://www.w3.org/2000/svg" xmlns:xlink="http://www.w3.org/1999/xlink" x="0px" y="0px"
	 width="1920px" height="1080px" viewBox="0 0 1920 1080" enable-background="new 0 0 1920 1080" xml:space="preserve">
<path fill="#7B7B7B" d="M1716.373,476.497h-57.008c-24.869-148.17-152.982-261.508-307.221-261.508
	c-152.25,0-279.709,107.715-309.232,250.499C1017.52,444.2,988.543,432.904,958,432.904c-30.519,0-59.467,11.296-84.86,32.558
	c-29.184-142.784-155.074-250.473-305.52-250.473c-165.168,0-300.917,126.858-314.359,287.659h-53.635
	c-14.461,0-26.151,11.716-26.151,26.15s11.689,26.151,26.151,26.151h53.635c13.441,160.801,149.191,287.659,314.359,287.659
	c169.118,0,306.907-136.167,311.483-305.207c22.307-33.604,50.079-52.196,78.897-52.196c28.818,0,56.589,18.618,78.896,52.196
	c4.654,169.04,144.117,305.207,315.248,305.207c171.994,0,311.928-140.77,311.928-313.811h52.301
	c14.463,0,26.152-11.716,26.152-26.15S1730.836,476.497,1716.373,476.497z M567.62,790.308
	c-145.215,0-263.391-117.312-263.391-261.509c0-144.195,118.176-261.508,263.391-261.508c145.607,0,259.625,114.881,259.625,261.508
	C827.246,675.427,713.228,790.308,567.62,790.308z M1352.145,790.308c-145.215,0-263.391-117.312-263.391-261.509
	c0-144.195,118.176-261.508,263.391-261.508c145.607,0,259.627,114.881,259.627,261.508
	C1611.771,675.427,1497.752,790.308,1352.145,790.308z"/>
</svg>
