<?xml version="1.0" encoding="utf-8"?>
<!-- Generator: Adobe Illustrator 16.0.0, SVG Export Plug-In . SVG Version: 6.00 Build 0)  -->
<!DOCTYPE svg PUBLIC "-//W3C//DTD SVG 1.1//EN" "http://www.w3.org/Graphics/SVG/1.1/DTD/svg11.dtd">
<svg version="1.1" id="Layer_1" xmlns="http://www.w3.org/2000/svg" xmlns:xlink="http://www.w3.org/1999/xlink" x="0px" y="0px"
	 width="1920px" height="1080px" viewBox="0 0 1920 1080" enable-background="new 0 0 1920 1080" xml:space="preserve">
<g>
	<path fill="#7B7B7B" d="M1438.047,335.721c-27.628-138.977-126.419-228.558-253.675-228.558
		c-71.163,0-148.187,29.302-223.535,84.558c-76.186-56.93-153.209-86.232-225.209-86.232c-127.256,0-226.884,90.419-253.675,231.07
		c-40.186,208.465,88.744,485.581,466.326,636.278c4.186,1.675,8.372,2.512,12.558,2.512c4.187,0,8.372-0.837,12.559-2.512
		C1350.14,818.791,1478.232,542.512,1438.047,335.721L1438.047,335.721z M960.837,904.186
		C629.303,766.884,514.604,527.441,548.93,349.116c20.094-106.326,93.768-175.814,186.698-175.814
		c62.791,0,133.116,30.14,203.442,87.907c12.558,10.046,30.139,10.046,42.697,0c70.325-56.093,139.813-85.396,202.604-85.396
		c92.931,0,165.768,67.814,186.698,173.302C1405.396,525.768,1291.535,764.372,960.837,904.186L960.837,904.186z"/>
</g>
</svg>
